<?xml version="1.0" encoding="UTF-8"?>
<svg version="1.1" xmlns="http://www.w3.org/2000/svg" width="225" height="225">

<path d="M0 0 C5.44099255 3.50641742 7.9218879 8.63873892 10.5625 14.375 C10.94043701 15.18469238 11.31837402 15.99438477 11.70776367 16.82861328 C17.40313967 29.12637796 22.84469739 41.54230147 28.3266449 53.93617249 C32.67043231 63.75599393 37.03076166 73.56845902 41.39169312 83.38067627 C42.73673836 86.40765514 44.08096004 89.43499867 45.42504883 92.46240234 C46.25079016 94.32129956 47.07655401 96.18018678 47.90234375 98.0390625 C48.28387604 98.89880676 48.66540833 99.75855103 49.0585022 100.64434814 C49.40778778 101.4302533 49.75707336 102.21615845 50.11694336 103.02587891 C50.5741703 104.05547226 50.5741703 104.05547226 51.04063416 105.10586548 C51.60496812 106.3536365 52.20006138 107.58762275 52.8125 108.8125 C53.3223625 113.2313083 53.10422207 115.32021901 50.8125 119.1875 C47.81126185 121.81358338 46.07470466 122.66192827 42.13671875 123.02685547 C37.28682849 122.57956517 33.3748196 119.6939484 29.3125 117.1875 C27.27225222 115.97937145 25.2305367 114.77371876 23.1875 113.5703125 C21.61548828 112.63493652 21.61548828 112.63493652 20.01171875 111.68066406 C14.85337491 108.66848098 9.58272811 105.87267408 4.3125 103.0625 C-2.59427602 99.34938332 -9.45603127 95.58624695 -16.1875 91.5625 C-17.12239258 91.0061084 -17.12239258 91.0061084 -18.07617188 90.43847656 C-19.46604143 89.59433759 -20.83047423 88.70848496 -22.1875 87.8125 C-22.1875 87.4825 -22.1875 87.1525 -22.1875 86.8125 C-8.3275 86.4825 5.5325 86.1525 19.8125 85.8125 C17.935625 81.64625 16.05875 77.48 14.125 73.1875 C7.20733191 57.79226258 0.48409515 42.31574918 -6.1875 26.8125 C-12.62527066 40.61485456 -18.84363199 54.50644163 -24.95501709 68.45574951 C-26.12590512 71.12706497 -27.29926663 73.79728238 -28.47314453 76.46728516 C-31.66594087 83.73532452 -34.85734537 91.00271393 -37.95289612 98.31282043 C-38.77245313 100.24569004 -39.59890777 102.17544284 -40.42797852 104.10424805 C-41.40288266 106.37807832 -42.36403541 108.65787658 -43.30834961 110.94458008 C-45.75210348 116.60295482 -47.44011328 120.22966629 -53.1875 122.8125 C-57.17111155 122.8125 -59.58989331 122.11766086 -63.125 120.3125 C-65.77768581 117.09712326 -65.59111786 115.34433728 -65.48846436 111.30102539 C-64.97002374 107.01429639 -63.27127909 103.40903882 -61.4453125 99.53125 C-61.05001846 98.65595139 -60.65472443 97.78065277 -60.24745178 96.87882996 C-58.95091929 94.01623375 -57.63168162 91.16471954 -56.3125 88.3125 C-55.40348314 86.31440839 -54.4963629 84.31545293 -53.59106445 82.31567383 C-51.72390026 78.19296787 -49.84998162 74.07343136 -47.97216797 69.95556641 C-44.07096988 61.37658592 -40.28997032 52.74530088 -36.51580811 44.10986328 C-35.40895181 41.57767264 -34.29988461 39.04646386 -33.18994141 36.515625 C-32.84199524 35.72185455 -32.49404907 34.92808411 -32.13555908 34.11026001 C-31.45786471 32.5651594 -30.77945821 31.0203709 -30.10028076 29.47592163 C-28.46433067 25.75098678 -26.84709168 22.01977651 -25.26416016 18.27197266 C-24.95424637 17.54500687 -24.64433258 16.81804108 -24.32502747 16.06904602 C-23.74712965 14.71176623 -23.17522841 13.35190896 -22.61088562 11.98893738 C-20.4294258 6.88969966 -18.07770422 3.03063161 -13.375 0 C-8.47847777 -1.82419456 -4.89652223 -1.82419456 0 0 Z " fill="#FEFBFB" transform="translate(117.1875,44.1875)"/>
</svg>
